<?xml version="1.0" encoding="utf-8"?>
<svg version="1.0" width="30" height="30" viewBox="0 0 1280.000000 1365.000000" preserveAspectRatio="xMidYMid meet" xmlns="http://www.w3.org/2000/svg">
  <g transform="translate(0.000000,1365.000000) scale(0.100000,-0.100000)" fill="#000000" stroke="none">
    <path d="M 5072.318 13009.276 C 4815.318 12977.276 4575.318 12891.276 4318.318 12738.276 C 3941.318 12514.276 3733.318 12243.276 3631.318 11847.276 C 3577.318 11635.276 3570.318 11435.276 3607.318 11183.276 C 3680.318 10680.276 3651.318 10275.276 3518.318 9959.276 C 3428.318 9746.276 3272.318 9548.276 3077.318 9398.276 C 2893.318 9256.276 2678.318 9139.276 2247.318 8944.276 C 1626.318 8662.276 1404.318 8539.276 1142.318 8330.276 C 636.318 7927.276 336.318 7366.276 213.318 6599.276 C 173.318 6352.276 160.318 6188.276 155.318 5848.276 C 149.318 5509.276 158.318 5309.276 188.318 5044.276 C 350.318 3616.276 1041.318 2475.276 2217.318 1692.276 C 2797.318 1306.276 3548.318 993.276 4242.318 849.276 C 4425.318 811.276 4439.318 811.276 4386.318 847.276 C 4305.318 900.276 4143.318 1041.276 4049.318 1139.276 C 3388.318 1827.276 3137.318 2737.276 3326.318 3760.276 C 3376.318 4026.276 3450.318 4247.276 3577.318 4504.276 C 3783.318 4922.276 4078.318 5270.276 4486.318 5575.276 C 4855.318 5852.276 5345.318 6097.276 5762.318 6214.276 C 5814.318 6228.276 5864.318 6243.276 5872.318 6245.276 C 5880.318 6248.276 5847.318 6263.276 5800.318 6279.276 C 5608.318 6344.276 5439.318 6447.276 5278.318 6600.276 C 5047.318 6819.276 4965.318 6987.276 4955.318 7259.276 C 4951.318 7381.276 4953.318 7404.276 4976.318 7494.276 C 5021.318 7669.276 5132.318 7862.276 5304.318 8068.276 C 5338.318 8109.276 5488.318 8267.276 5636.318 8419.276 C 5918.318 8707.276 6035.318 8844.276 6115.318 8977.276 C 6261.318 9219.276 6330.318 9530.276 6303.318 9822.276 C 6289.318 9968.276 6260.318 10093.276 6198.318 10274.276 C 6132.318 10466.276 6119.318 10553.276 6125.318 10734.276 C 6136.318 11056.276 6212.318 11202.276 6421.318 11304.276 C 6580.318 11382.276 6770.318 11413.276 7036.318 11406.276 C 7185.318 11402.276 7240.318 11396.276 7347.318 11373.276 C 7459.318 11349.276 7499.318 11345.276 7637.318 11345.276 C 8460.318 11345.276 9105.318 11784.276 9403.318 12549.276 C 9436.318 12634.276 9486.318 12808.276 9479.318 12815.276 C 9477.318 12818.276 9437.318 12786.276 9392.318 12744.276 C 9287.318 12647.276 9183.318 12563.276 9107.318 12513.276 C 8810.318 12315.276 8482.318 12232.276 8101.318 12259.276 C 7765.318 12283.276 7458.318 12366.276 7013.318 12553.276 C 6424.318 12802.276 5990.318 12939.276 5612.318 12994.276 C 5485.318 13013.276 5175.318 13021.276 5072.318 13009.276 Z" style="fill-rule: nonzero; paint-order: fill; stroke-width: 250px; fill: rgb(255, 255, 255);"/>
    <path d="M 6401.954 5609.056 C 5821.954 5559.056 5249.954 5299.056 4825.954 4892.056 C 4397.954 4482.056 4129.954 3960.056 4039.954 3360.056 C 4017.954 3217.056 4014.954 2811.056 4034.954 2675.056 C 4079.954 2355.056 4160.954 2094.056 4295.954 1825.056 C 4606.954 1209.056 5147.954 739.056 5793.954 522.056 C 6713.954 213.056 7724.954 433.056 8425.954 1096.056 C 8700.954 1356.056 8934.954 1701.056 9070.954 2048.056 C 9259.954 2530.056 9297.954 3094.056 9177.954 3612.056 C 9074.954 4052.056 8838.954 4481.056 8516.954 4814.056 C 7962.954 5387.056 7191.954 5677.056 6401.954 5609.056 Z" style="fill-rule: nonzero; paint-order: fill; stroke-width: 300px; fill: rgb(255, 255, 255);"/>
    <path d="M 12373.374 4756.065 C 12189.374 4448.065 11936.374 4232.065 11604.374 4100.065 C 11433.374 4032.065 11132.374 3979.065 10912.374 3979.065 C 10634.374 3979.065 10266.374 4041.065 9986.374 4134.065 C 9929.374 4152.065 9881.374 4166.065 9879.374 4164.065 C 9877.374 4163.065 9890.374 4121.065 9907.374 4073.065 C 10011.374 3780.065 10060.374 3329.065 10038.374 2881.065 C 10006.374 2246.065 9920.374 1871.065 9712.374 1463.065 C 9633.374 1307.065 9506.374 1110.065 9400.374 979.065 C 9302.374 857.065 9128.374 680.065 9019.374 592.065 C 8952.374 537.065 8930.374 513.065 8940.374 508.065 C 8968.374 492.065 9086.374 479.065 9205.374 479.065 C 9747.374 479.065 10364.374 765.065 11007.374 1315.065 C 11157.374 1443.065 11500.374 1787.065 11606.374 1914.065 C 12113.374 2525.065 12393.374 3154.065 12478.374 3874.065 C 12495.374 4016.065 12495.374 4402.065 12479.374 4543.065 C 12466.374 4647.065 12434.374 4826.065 12425.374 4834.065 C 12423.374 4836.065 12400.374 4801.065 12373.374 4756.065 Z" style="stroke-width: 300px; fill: rgb(255, 255, 255);"/>
  </g>
</svg>