<?xml version="1.0" encoding="utf-8"?>
<svg version="1.0" width="30" height="30" viewBox="0 0 1280.000000 1365.000000" preserveAspectRatio="xMidYMid meet" xmlns="http://www.w3.org/2000/svg">
  <g transform="translate(0.000000,1365.000000) scale(0.100000,-0.100000)" fill="#000000" stroke="none">
    <path d="M5570 12990 c-257 -32 -497 -118 -754 -271 -377 -224 -585 -495 -687 -891 -54 -212 -61 -412 -24 -664 73 -503 44 -908 -89 -1224 -90 -213 -246 -411 -441 -561 -184 -142 -399 -259 -830 -454 -621 -282 -843 -405 -1105 -614 -506 -403 -806 -964 -929 -1731 -40 -247 -53 -411 -58 -751 -6 -339 3 -539 33 -804 162 -1428 853 -2569 2029 -3352 580 -386 1331 -699 2025 -843 183 -38 197 -38 144 -2 -81 53 -243 194 -337 292 -661 688 -912 1598 -723 2621 50 266 124 487 251 744 206 418 501 766 909 1071 369 277 859 522 1276 639 52 14 102 29 110 31 8 3 -25 18 -72 34 -192 65 -361 168 -522 321 -231 219 -313 387 -323 659 -4 122 -2 145 21 235 45 175 156 368 328 574 34 41 184 199 332 351 282 288 399 425 479 558 146 242 215 553 188 845 -14 146 -43 271 -105 452 -66 192 -79 279 -73 460 11 322 87 468 296 570 159 78 349 109 615 102 149 -4 204 -10 311 -33 112 -24 152 -28 290 -28 823 0 1468 439 1766 1204 33 85 83 259 76 266 -2 3 -42 -29 -87 -71 -105 -97 -209 -181 -285 -231 -297 -198 -625 -281 -1006 -254 -336 24 -643 107 -1088 294 -589 249 -1023 386 -1401 441 -127 19 -437 27 -540 15z" style="fill: rgb(255, 255, 255); fill-rule: nonzero; stroke: rgb(0, 0, 0); stroke-width: 150px; paint-order: fill;"/>
    <path d="M6585 5879 c-580 -50 -1152 -310 -1576 -717 -428 -410 -696 -932 -786 -1532 -22 -143 -25 -549 -5 -685 45 -320 126 -581 261 -850 311 -616 852 -1086 1498 -1303 920 -309 1931 -89 2632 574 275 260 509 605 645 952 189 482 227 1046 107 1564 -103 440 -339 869 -661 1202 -554 573 -1325 863 -2115 795z" style="fill-rule: nonzero; paint-order: fill; fill: rgb(255, 255, 255); stroke: rgb(0, 0, 0); stroke-width: 150px;"/>
    <path d="M12166 5107 c-184 -308 -437 -524 -769 -656 -171 -68 -472 -121 -692 -121 -278 0 -646 62 -926 155 -57 18 -105 32 -107 30 -2 -1 11 -43 28 -91 104 -293 153 -744 131 -1192 -32 -635 -118 -1010 -326 -1418 -79 -156 -206 -353 -312 -484 -98 -122 -272 -299 -381 -387 -67 -55 -89 -79 -79 -84 28 -16 146 -29 265 -29 542 0 1159 286 1802 836 150 128 493 472 599 599 507 611 787 1240 872 1960 17 142 17 528 1 669 -13 104 -45 283 -54 291 -2 2 -25 -33 -52 -78z" style="fill: rgb(255, 255, 255); stroke-width: 150px; stroke: rgb(0, 0, 0);"/>
  </g>
</svg>